<?xml version="1.0" encoding="UTF-8" standalone="no"?>
<!-- Created with Inkscape (http://www.inkscape.org/) -->

<svg
   xmlns:dc="http://purl.org/dc/elements/1.1/"
   xmlns:cc="http://creativecommons.org/ns#"
   xmlns:rdf="http://www.w3.org/1999/02/22-rdf-syntax-ns#"
   xmlns:svg="http://www.w3.org/2000/svg"
   xmlns="http://www.w3.org/2000/svg"
   xmlns:sodipodi="http://sodipodi.sourceforge.net/DTD/sodipodi-0.dtd"
   xmlns:inkscape="http://www.inkscape.org/namespaces/inkscape"
   width="1920"
   height="950"
   viewBox="0 0 1920 950.00002"
   id="svg4140"
   version="1.1"
   inkscape:version="0.91 r13725"
   inkscape:export-filename="/home/jepee/code/bbcool/public-website/images/secure-cloud.png"
   inkscape:export-xdpi="90"
   inkscape:export-ydpi="90"
   sodipodi:docname="secure-cloud.svg">
  <defs
     id="defs4142" />
  <sodipodi:namedview
     id="base"
     pagecolor="#ffffff"
     bordercolor="#666666"
     borderopacity="1.0"
     inkscape:pageopacity="0.0"
     inkscape:pageshadow="2"
     inkscape:zoom="0.35"
     inkscape:cx="636.42857"
     inkscape:cy="634.28571"
     inkscape:document-units="px"
     inkscape:current-layer="layer1"
     showgrid="false"
     units="px"
     fit-margin-top="0"
     fit-margin-left="0"
     fit-margin-right="0"
     fit-margin-bottom="0"
     inkscape:window-width="1920"
     inkscape:window-height="1017"
     inkscape:window-x="0"
     inkscape:window-y="30"
     inkscape:window-maximized="1" />
  <metadata
     id="metadata4145">
    <rdf:RDF>
      <cc:Work
         rdf:about="">
        <dc:format>image/svg+xml</dc:format>
        <dc:type
           rdf:resource="http://purl.org/dc/dcmitype/StillImage" />
        <dc:title></dc:title>
      </cc:Work>
    </rdf:RDF>
  </metadata>
  <g
     inkscape:label="Layer 1"
     inkscape:groupmode="layer"
     id="layer1"
     transform="translate(0,-102.36214)">
    <g
       id="g4700"
       transform="matrix(26.119048,0,0,26.119048,646.57142,263.93356)">
      <path
         id="path4690"
         d="m 12,-5.03464 -13.9374324,6.1944145 0,9.2916215 c 0,8.594751 5.9466379,16.632003 13.9374324,18.583244 7.990794,-1.951241 13.937432,-9.988493 13.937432,-18.583244 l 0,-9.2916215 L 12,-5.03464 Z m 0,17.019154 10.840225,0 C 22.019466,18.364761 17.760806,24.048136 12,25.82903 L 12,12 1.1597749,12 l 0,-8.8270408 L 12,-1.6431981 12,11.984514 Z"
         inkscape:connector-curvature="0"
         style="fill:#003a61;fill-opacity:1" />
      <path
         id="path4692"
         d="M 0,0 24,0 24,24 0,24 Z"
         inkscape:connector-curvature="0"
         style="fill:none" />
    </g>
    <g
       id="g4716"
       transform="matrix(10.166667,0,0,10.166667,939.71429,576.64785)">
      <path
         id="path4706"
         d="M 0,0 24,0 24,24 0,24 Z"
         inkscape:connector-curvature="0"
         style="fill:none" />
      <path
         id="path4708"
         d="m 18.175644,9.2295082 -0.912178,0 0,-1.824356 c 0,-2.5176113 -2.043279,-4.56089 -4.56089,-4.56089 -2.517611,0 -4.5608899,2.0432787 -4.5608899,4.56089 l 0,1.824356 -0.9121779,0 c -1.0033958,0 -1.824356,0.8209598 -1.824356,1.8243558 l 0,9.12178 C 5.4051522,21.17904 6.2261124,22 7.2295082,22 L 18.175644,22 C 19.17904,22 20,21.17904 20,20.175644 l 0,-9.12178 C 20,10.050468 19.17904,9.2295082 18.175644,9.2295082 Z M 12.702576,17.43911 c -1.003396,0 -1.824356,-0.82096 -1.824356,-1.824356 0,-1.003396 0.82096,-1.824356 1.824356,-1.824356 1.003396,0 1.824356,0.82096 1.824356,1.824356 0,1.003396 -0.82096,1.824356 -1.824356,1.824356 z m 2.827752,-8.2096018 -5.6555037,0 0,-1.824356 c 0,-1.5598244 1.2679277,-2.8277518 2.8277517,-2.8277518 1.559824,0 2.827752,1.2679274 2.827752,2.8277518 l 0,1.824356 z"
         inkscape:connector-curvature="0"
         style="fill:#5598c7;fill-opacity:1" />
    </g>
    <g
       id="g4732"
       transform="matrix(10.285714,0,0,10.285714,693.71429,317.505)">
      <path
         id="path4722"
         d="M 0,0 24,0 24,24 0,24 Z"
         inkscape:connector-curvature="0"
         style="fill:none" />
      <path
         id="path4724"
         d="M 12.65,10 C 11.83,7.67 9.61,6 7,6 3.69,6 1,8.69 1,12 c 0,3.31 2.69,6 6,6 2.61,0 4.83,-1.67 5.65,-4 l 4.35,0 0,4 4,0 0,-4 2,0 0,-4 -10.35,0 z M 7,14 c -1.1,0 -2,-0.9 -2,-2 0,-1.1 0.9,-2 2,-2 1.1,0 2,0.9 2,2 0,1.1 -0.9,2 -2,2 z"
         inkscape:connector-curvature="0"
         style="fill:#5598c7;fill-opacity:1" />
    </g>
  </g>
</svg>
